PathFileType	4	(X/Y/Z)	26_2_30_p1_0-880_filt_butterworth.trc
DataRate	CameraRate	NumFrames	NumMarkers	Units	OrigDataRate	OrigDataStartFrame	OrigNumFrames
52.0	52.0	6	27	m	52.0	110	880
Frame#	Time	RHip			RKnee			RAnkle			RBigToe			RSmallToe			RHeel			LHip			LKnee			LAnkle			LBigToe			LSmallToe			LHeel			Neck			Head			Nose			RShoulder			RElbow			RWrist			RThumb			RIndex			RPinky			LShoulder			LElbow			LWrist			LThumb			LIndex			LPinky			
		X1	Y1	Z1	X2	Y2	Z2	X3	Y3	Z3	X4	Y4	Z4	X5	Y5	Z5	X6	Y6	Z6	X7	Y7	Z7	X8	Y8	Z8	X9	Y9	Z9	X10	Y10	Z10	X11	Y11	Z11	X12	Y12	Z12	X13	Y13	Z13	X14	Y14	Z14	X15	Y15	Z15	X16	Y16	Z16	X17	Y17	Z17	X18	Y18	Z18	X19	Y19	Z19	X20	Y20	Z20	X21	Y21	Z21	X22	Y22	Z22	X23	Y23	Z23	X24	Y24	Z24	X25	Y25	Z25	X26	Y26	Z26	X27	Y27	Z27	
110	2.1153846153846154	0.2995143430116693	0.7478263421363525	0.9169478473844256	0.27958826257818575	0.9852008674222876	1.2713083324371852	0.24410711068212929	1.262703096577979	1.64835799038288	0.2387291226101377	1.0020444445440029	1.6881347702147642	0.2772648259480646	1.0423408477909906	1.6967000308965487	0.24301668237799015	1.313373655286685	1.6809424429972308	0.07444162407462433	0.7740980958259269	0.8950215466075545	0.09325755372447939	0.9839777322733608	1.2512048215950307	0.12180271484087271	1.2543544644053517	1.646214049204072	0.10731099430105112	1.0099529568774297	1.681758256979736	0.05898324678112885	1.098113264341648	1.673033374327547	0.13896880069087914	1.3263323371223283	1.6891002627751743	0.21630550686087843	0.5276711146321587	0.3291627862328538	0.22731794731035562	0.39617163862473803	0.12161059866228048	0.22078142465651823	0.3867378010573721	0.25124280180114955	0.38320832941592975	0.5812293476671484	0.42834615588303077	0.41228328533763264	0.7209580655681611	0.662972908373074	0.3287888411393899	0.757219351922251	0.7923379750468195	0.28488350739135054	0.8928966827708479	0.8823492541011364	0.24973862516519107	0.7590348746739349	0.8593437390201644	0.24239526161743163	0.885877731476093	0.8538847674257146	0.05469824449460719	0.5840762716109589	0.4041647825491711	0.0014592447893217956	0.7966604659262071	0.6045968510272794	0.07050154646412474	0.7833032869482672	0.7646794991119695	0.0897146158151223	0.7510868470374596	0.7977008160592733	0.10157309308506737	0.6866540325707349	0.8286334628214482	0.1385046678909997	0.8407945013531269	0.7949009634519669
111	2.1346153846153846	0.29946071064348995	0.7475900743595394	0.9167860453812087	0.27948833604368867	0.9859069688970395	1.2725016087999077	0.24397120006004186	1.2626541638322566	1.6483548581053977	0.23858716718254794	1.001516050442467	1.6876233800858889	0.2771104609347595	1.0421032720089873	1.6955270357331647	0.24301436599671403	1.3133740092527764	1.6809253851361887	0.0744059772864982	0.7741095496211394	0.8949807553973065	0.09326008918158427	0.9839756314160385	1.251231484618816	0.12179215897932064	1.2543422576096313	1.6462002918698193	0.10732641462029213	1.00985987760831	1.6817381582336548	0.05901192695794834	1.098512050864746	1.6718731232926178	0.1371858193855339	1.3238298492223601	1.6885877594252763	0.21628518453702675	0.5277661327957425	0.3288556796346746	0.227304091034506	0.39617200562939664	0.12164391131692973	0.220790707939581	0.38675423812617327	0.25121904949783275	0.38321428397914553	0.5812060834315708	0.42811874553681273	0.4122213662784727	0.7211198743148637	0.6629331338286679	0.3287872248528274	0.7571540543741349	0.7925541814830145	0.28488350739135054	0.8928966827708479	0.8823492541011364	0.24973878227296095	0.76948628395566	0.8604278281985089	0.24684847560143652	0.8854220854169756	0.8539732648580645	0.05469875323836168	0.5840906398481565	0.40415875909664645	0.0007849320705094036	0.7930586737904444	0.6051197546119618	0.07004436203784058	0.782715328811039	0.7668013334006396	0.0897146165532234	0.7510868459296425	0.7977008182400559	0.10114674159119477	0.6849057374123491	0.8290933619733725	0.13141333982199813	0.8260555366133736	0.798783636376581
112	2.1538461538461537	0.29934940021219403	0.7469992859800595	0.9163482615390564	0.27948404353060385	0.9864497951876772	1.2729499165344147	0.24382975580509464	1.2626177859797059	1.6483606598898963	0.23867076621175726	1.0018830216862598	1.6880333134953602	0.2770223760923361	1.0422536414243542	1.693891796918043	0.2430100208431978	1.313414024445646	1.6809429880342623	0.0743876928629032	0.774105761475945	0.8949748297179226	0.09325306907912817	0.9839498530245278	1.2512500940610336	0.12176006671311236	1.2543802330351563	1.646206184011218	0.10734652133220245	1.0098253718157886	1.6817308278163785	0.05899522840313986	1.098872577698586	1.672229941447211	0.1346456492872011	1.3202769928002573	1.6878392567818172	0.2163294059363094	0.5275979602775018	0.32891376010208084	0.2272863824624033	0.3961776785786097	0.12173689644779624	0.2208026232714916	0.38679211291191784	0.2511798522614509	0.38321439826890746	0.5812209650491186	0.4281971486240911	0.41222412367533395	0.7209822544982781	0.662969644562549	0.3287112115304113	0.7573291528425241	0.792365308010576	0.28488350739135054	0.8928966827708479	0.8823492541011364	0.2497557153818664	0.7804050287779388	0.8608164861916647	0.24996487850114035	0.8881059680984947	0.8537575989803519	0.05469175916804235	0.5840891858272041	0.4041408314179655	0.00048043229582157626	0.7912125751903454	0.6053958588313593	0.07014345714522195	0.7827806597345078	0.7675603971327861	0.0897146167263135	0.75108684570582	0.7977008185438272	0.10072058451669547	0.6831583034940081	0.8295530402622011	0.12480527682842471	0.8123265053150365	0.8024123453349914
113	2.173076923076923	0.29923668496561895	0.7463824861758732	0.9157463667358122	0.2795048443391413	0.986630472888941	1.27299912780608	0.24415957151582815	1.2627217314441745	1.6483846901274088	0.23896915446781788	1.0031816362246238	1.6893641422320542	0.2769662038226234	1.042466167591903	1.6927271999516351	0.24299668820084772	1.3134360401509824	1.680957924454284	0.07438681155992802	0.7741127363807512	0.8949760941784941	0.09324158350249868	0.9839109914920889	1.2512613761539064	0.1217316985335157	1.2544673299097524	1.646263445259126	0.10737495857793874	1.009885966952306	1.6817458766311775	0.05887699858291723	1.0974278860150632	1.6735073536848668	0.13285000588128987	1.3177643064575653	1.687304139770719	0.21633002804338824	0.5275435835164837	0.32898379348636164	0.2272653718120531	0.3961876479750922	0.12182891965932516	0.22080701262837088	0.3868374237425452	0.251137652171369	0.3832027992326933	0.5812335546252287	0.42824824215143426	0.4123058143798527	0.7205047409484082	0.6631065792477451	0.328544926240815	0.7579434726506119	0.791139785584604	0.28488350739135054	0.8928966827708479	0.8823492541011364	0.24974630444080742	0.7851341293587629	0.859739300512258	0.2507987019213278	0.8897555942718673	0.8536762901763177	0.05466786193659232	0.5840448933986998	0.40411860450199477	0.00037589854684432514	0.7906739271135864	0.6054644822064588	0.07052888379519087	0.7828917496458171	0.7671845026004552	0.08971461664965384	0.751086845836235	0.7977008182286814	0.10029543875450157	0.6814150661880702	0.8300116264744329	0.11801610365885652	0.7982515018284851	0.8062024614803406
114	2.1923076923076925	0.29914049224135586	0.7458786436258813	0.9150361389294362	0.2795169997301386	0.9863459151317909	1.2726766328827388	0.24546563220403939	1.263106739064266	1.6484474709432277	0.23925274574975877	1.0043494888436417	1.6905145827719001	0.2769800571447634	1.0426015657104106	1.692742581743737	0.2429824106597607	1.3134343717482118	1.680980267273267	0.07439954752771294	0.7741244277067039	0.8949900860861782	0.09322981868599942	0.9838773441660611	1.2512643680056768	0.12174755761447653	1.2545304498837109	1.6463770668074889	0.10740005997901299	1.010015445236363	1.6817433966847095	0.0587642038742234	1.0927299834676432	1.6739660989435232	0.13280298495203005	1.317637330090872	1.6872643819746176	0.2163008304528518	0.5275768100248348	0.3289880991172821	0.22724624634505752	0.3961177656833848	0.12158301861292274	0.22079371971132797	0.386875194159721	0.251108631795081	0.3831864962507414	0.5812099341769258	0.4282278496456638	0.4124006945352434	0.7199605283284112	0.6631840365635473	0.32834408852840036	0.7588656683472046	0.7891705929499859	0.28488350739135054	0.8928966827708479	0.8823492541011364	0.24966409288415026	0.7859224694415683	0.8569858057311899	0.25050579200388345	0.8900756711693864	0.8536800150271775	0.054638486162307064	0.5839792501172175	0.4040432884798884	0.0002699760561550296	0.7904077763928872	0.6054431104579387	0.07036170239710123	0.7812139853725171	0.7670153319707346	0.08971461658161795	0.7510868459375696	0.7977008180321703	0.09987142873488966	0.6796764940419463	0.8304689893607355	0.1109509655486744	0.783582291341149	0.8100407069613179
115	2.2115384615384617	0.2990178264555948	0.7452902924142435	0.9142193799342591	0.2795036317303419	0.9854451137859144	1.271566830125896	0.24737786164171743	1.2636623824308935	1.6485404594780502	0.2393655018608597	1.0047429722952947	1.690857238357347	0.27706572952704006	1.0425822441291175	1.6939593384125875	0.2429901893934713	1.3134545830090771	1.6810323886566074	0.074418611100762	0.7740895932542973	0.8950148394496491	0.09320760713083336	0.9838389523545936	1.2512676939168637	0.12181575415370738	1.254500500881749	1.6464427774457435	0.1073922710297531	1.0101113503091677	1.6816604433539024	0.05911560969102362	1.0874991533517682	1.6732278630132085	0.13454068723185866	1.3199825863674264	1.6877328049285274	0.21627268336056932	0.5276155308027791	0.32896691391936816	0.22726552205545708	0.3959379547548614	0.1206217083588462	0.22076782184527843	0.38690506480069486	0.2510992265771829	0.3831766463377079	0.5811724408478159	0.42818366581325346	0.4124718271693142	0.7190175039053235	0.6628582659267839	0.32824878081945247	0.7594962643672056	0.7875950107986069	0.28488350739135054	0.8928966827708479	0.8823492541011364	0.24956520718668967	0.7846779793712384	0.8538758828808535	0.2502237430621085	0.8898848835287301	0.8535974105872747	0.054625131884235525	0.5839665520792541	0.40402452845589637	9.491397483501998e-05	0.7899407352407102	0.605360750504365	0.06887044505847872	0.7767345663766427	0.7677981239078432	0.08971461656820795	0.751086845954231	0.797700818012556	0.09944481156795851	0.677927225058561	0.830929165476431	0.10427308224290101	0.7694597123947036	0.8131256802185969
